<svg xmlns="http://www.w3.org/2000/svg" viewBox="0 0 1520.24 490.76"><defs><style>.cls-1,.cls-3{fill:#fff;}.cls-2{fill:#036;}.cls-3{font-size:406.17px;font-family:UPBOLTERS-Italic, UPBOLTERS;font-style:italic;}</style></defs><title>Asset 4</title><g id="Layer_2" data-name="Layer 2"><g id="Objects"><path class="cls-1" d="M157.42,104.21,201,102.6,164.9,334l50.15-1.85-8.69,55.1-163.7,6,8.68-55.09,50.14-1.85,26-166.68-50.15,1.85,6.76-42.71Z"/><polygon class="cls-2" points="0 431.07 20.18 303.02 70.28 301.18 84.9 207.45 34.66 209.31 51.74 101.36 150.87 68.18 243.62 64.76 207.49 296.11 257.7 294.26 237.52 422.32 0 431.07"/><path class="cls-1" d="M223.92,378.81l3.2-53.11,115.64-4.27-3.2,53.11Zm29.77-248.89q2.59-15,11.49-22.46,9-7.23,31.79-8.19L331.23,98q22.77-.72,29.17,6,4.37,4.6,4.67,12.81a44.22,44.22,0,0,1-.72,9.08l-20,113.5q-2.6,15-11.62,22.45Q323.79,269,301,270l-34.27,1.26q-22.77.72-29.3-5.95-4.23-4.6-4.53-12.69a44.77,44.77,0,0,1,.71-9.19ZM277,233.48a7.71,7.71,0,0,0-.08,1.31c.08,2.15,1.42,3.17,4,3.07l17.4-.64q4.83-.18,5.59-4.73l17-96.72a6.8,6.8,0,0,0,.08-1.31c-.07-2.14-1.47-3.16-4.17-3.06l-17.4.64c-3.14.11-5,1.69-5.45,4.72Z"/><path class="cls-2" d="M185.34,416.49l7.58-125.79L211,290l-.2-.22c-6.05-6.59-13.4-18.16-14.05-35.87a81.84,81.84,0,0,1,1.21-16.66L218,123.67c3.23-18.56,11.26-33.34,23.86-43.94l.67-.55c12.49-10,29.31-15.13,52.93-16.12l34.45-1.27c16.86-.55,40.88.65,56.64,17.06,6.46,6.82,14.07,18.5,14.74,36.56a81,81,0,0,1-1.2,16.52L380,245.64c-2.72,15.71-9,28.76-18.58,38.84l19.93-.74-7.6,125.81Z"/><path class="cls-1" d="M536.56,90.22,600,87.89,563.86,319.23l71.75-2.64-8.69,55.09-135.16,5Z"/><polygon class="cls-2" points="449.15 414.5 505.37 55.11 642.57 50.05 606.45 281.39 678.26 278.75 658.08 406.8 449.15 414.5"/><path class="cls-1" d="M795.4,80.68l63.42-2.34L821.55,316.08q-3.84,24.94-17.48,37.36-13.44,12-47.92,13.48l-51.93,1.91q-34.5,1.08-44.43-10.07-6.43-7.69-6.93-21.18a81.55,81.55,0,0,1,1-15.32L691.15,84.52l63.42-2.34L719.56,306a12.93,12.93,0,0,0-.11,2.18q.19,5.36,6.14,5.14l26.35-1q7.34-.26,8.45-7.85Z"/><path class="cls-2" d="M698,405.17c-21.42,0-48.31-3.3-65.24-22.31L632,382c-9.56-11.43-14.73-25.93-15.36-43.1a117.48,117.48,0,0,1,1.42-22.16L660,49.4l241.47-8.9L857.36,321.69c-3.83,24.86-13.56,44.59-28.89,58.55l-.25.23c-15.56,13.89-38.63,21.3-70.53,22.65l-52.14,1.93C703.13,405.12,700.59,405.17,698,405.17Zm-8.8-72.87,1.69.14c-.52-.72-1-1.47-1.49-2.24C689.28,331,689.22,331.66,689.17,332.3Z"/><path class="cls-1" d="M1048.76,202.31l-16.73,106q-3.84,25-17.48,37.36-13.45,12-47.93,13.48l-51.92,1.92q-34.5,1.08-44.43-10.08-6.43-7.69-6.93-21.17a81.55,81.55,0,0,1,1-15.32l29.74-189q3.84-24.94,17.27-37.35Q925,76.1,959.5,74.62l50-1.84q34.48-1.07,44.23,10.08,6.63,7.69,7.14,21.37a81.1,81.1,0,0,1-1,15.12l-7.87,50.3-61.44,2.27,5.61-36.33a14.19,14.19,0,0,0,.11-2.19c-.13-3.57-2.25-5.27-6.34-5.12l-26.36,1q-7.14.27-8.24,7.85L930,298.19a12.88,12.88,0,0,0-.11,2.18q.2,5.36,6.13,5.13l28.34-1q7.33-.27,8.45-7.85l5.79-36.94-21.21.79,8.68-55.1Z"/><path class="cls-2" d="M908.45,397.41c-21.41,0-48.3-3.3-65.24-22.3l-.74-.86c-9.55-11.42-14.72-25.92-15.35-43.09A118.06,118.06,0,0,1,828.53,309L858.3,119.83c3.81-24.76,13.41-44.43,28.49-58.36l.64-.57C903.08,47.13,926.15,39.77,958,38.41l50.16-1.85c22.37-.71,54,.89,72.86,22.45C1091,70.7,1096.39,85.4,1097,102.89a116.76,116.76,0,0,1-1.42,21.9l-6.22,39.76,2-.08L1067.82,314c-3.81,24.82-13.54,44.55-28.87,58.51l-.26.24c-15.56,13.88-38.62,21.29-70.52,22.65L916,397.28C913.61,397.36,911.07,397.41,908.45,397.41Zm-8.8-72.87,1.69.14c-.52-.73-1-1.48-1.49-2.24C899.77,323.19,899.7,323.89,899.65,324.54Z"/><path class="cls-1" d="M1146.8,67.71,1247.67,64l6.73,284.55L1191,350.88l-.8-53.76-58.46,2.16-17.84,54.44-63.42,2.34Zm43,46.84L1149.92,244l39-1.44Z"/><polyline class="cls-2" points="1226.61 28.5 1283.04 26.42 1291.48 383.44 1155.28 388.46 1154.65 345.68 1140.46 389 999.5 394.21 1120.38 32.42 1177.83 30.3"/><path class="cls-1" d="M1359,245.64l-15.57,99.62L1280,347.59l44.81-286.44,107.81-4q34.5-1.06,44.23,10.08,6.64,7.69,7.15,21.37a82,82,0,0,1-1,15.12L1472,173q-3.85,24.94-27.39,37.72c-3.91,1.74-6,3.27-6.38,4.6v.2q.06,1.59,5.1,3.79,17.6,9.06,18.27,27.3a49.79,49.79,0,0,1-.47,8.75l-13.5,86-63.42,2.34,14.47-92a14.09,14.09,0,0,0,.12-2.18c-.13-3.57-2.25-5.28-6.34-5.13Zm20.54-131.73-11.86,76.45,33.49-1.24q7.33-.27,8.45-7.86l9.65-61.28a14.19,14.19,0,0,0,.11-2.19c-.13-3.57-2.25-5.27-6.34-5.12Z"/><path class="cls-2" d="M1237.36,385.43,1293.58,26,1431.25,21c22.37-.7,54,.87,72.85,22.43,10.08,11.7,15.43,26.4,16.07,43.89a116.6,116.6,0,0,1-1.41,21.9l-11,69.48a85,85,0,0,1-16.57,39.4,67.44,67.44,0,0,1,6.61,27.22,86.82,86.82,0,0,1-.78,15l-.11.73-18.12,115.53Z"/><text class="cls-3" transform="translate(20.27 399.4) rotate(-2.11)">1ยบ lugar</text></g></g></svg>