<svg xmlns="http://www.w3.org/2000/svg" viewBox="0 0 1537.85 491.81"><defs><style>.cls-1{fill:#036;}.cls-2{font-size:406.17px;fill:#fff;font-family:UPBOLTERS-Italic, UPBOLTERS;font-style:italic;}</style></defs><title>Asset 6</title><g id="Layer_2" data-name="Layer 2"><g id="Objects"><path class="cls-1" d="M115.28,336.15l100.28-3.7-8.68,55.1-163.71,6L55,317.34q4.17-27,17.8-39.36Q86.3,266,128,243.49t43.38-32.06l7.06-45.31a13,13,0,0,0,.11-2.19c-.13-3.56-2.18-5.28-6.14-5.13l-22.4.83q-7.32.27-8.44,7.85l-4.83,30.34-61.44,2.27,7.1-44.32q3.84-24.95,17.27-37.35,13.65-12,48.13-13.49l46-1.69q34.49-1.08,44.23,10.08,6.63,7.7,7.14,21.36a81.15,81.15,0,0,1-1,15.13l-10.29,65.27q-4.17,27-17.8,39.36-13.45,12-55.19,34.48T117.82,319Z"/><path class="cls-1" d="M31.43,404,45.16,315.8c3.12-20.19,10.17-35.41,21-45.22,9.71-8.66,28.39-20.38,57.18-35.89,31.37-16.89,37.34-24,38.35-25.55L167.9,169l-16.51.61-6,37.94-81.82,3,9-56.34c2.9-18.79,9.75-33.32,20.37-43.12l.18-.16c11-9.65,28.73-14.88,54.3-16l46-1.7c26.81-.83,43.36,3.46,52.13,13.5,6,6.92,9.18,16.18,9.6,27.58a90.76,90.76,0,0,1-1.14,17l-10.3,65.33c-3.12,20.17-10.16,35.38-20.94,45.19-9.72,8.68-28.4,20.4-57.18,35.9-29.13,15.69-36.38,22.2-38.11,24.17l-.57,3.81,100.4-3.7-11.86,75.23ZM172.87,148.79c9.1,0,15.38,5.85,15.71,14.77a24,24,0,0,1-.19,3.81l0,.29-7.09,45.45c-1.47,8.64-10.28,18.62-48.49,39.19-27,14.55-44.93,25.7-53.27,33.14C72.26,292,67.33,303.3,64.93,318.86l-10,64.28,143.36-5.28,5.51-35-100.17,3.7,4.34-29.3c1.13-6.52,5.65-14.28,48.17-37.17,27-14.54,44.92-25.69,53.27-33.14,7.24-6.59,12.17-17.86,14.57-33.43l10.3-65.3a71.49,71.49,0,0,0,.92-13.2c-.25-6.74-1.84-11.86-4.72-15.2-1.95-2.24-9.5-7.45-36.35-6.62l-45.92,1.7c-25.38,1.08-36.74,6.52-41.8,10.92-7.16,6.66-11.9,17.24-14.09,31.44l-5.18,32.36,41.06-1.52L131.72,166c1.45-9.72,8.32-16,18-16.33l22.39-.82Z"/><path class="cls-1" d="M13.22,420.21l16.63-106.8c3.67-23.76,12.36-42,25.83-54.29l.18-.16c10-8.9,27.22-20,54-34.63l-64.64,2.39,12-74.92c3.46-22.36,11.93-39.9,25.17-52.12l.45-.4c13.73-12.09,34.63-18.57,63.88-19.82h.15L193,77.75c20-.62,48.38.65,64.22,18.79l.12.13c8.27,9.6,12.75,22.07,13.3,37.07a106.41,106.41,0,0,1-1.3,19.91l0,.13L259,219.05c-3.66,23.71-12.35,42-25.81,54.24l-.19.17c-10,9-27.39,20.08-54.41,34.84l66.94-2.47L228.8,412.26Zm76.71-123.3c-4.52,4.18-7.87,12.58-9.69,24.32L73.12,367,185,362.84l.59-3.76-100,3.68,7.13-48.09c2.64-15.38,15.22-26.19,56.09-48.2,33.72-18.16,45.91-27.17,50.19-31,4.52-4.18,7.87-12.59,9.69-24.33L219,145.91a57,57,0,0,0,.75-10.28,19.46,19.46,0,0,0-.67-4.82c-2.46-.85-9.31-2.54-24.35-2.09l-45.83,1.69c-23.14,1-30.51,5.7-32.11,7-5.51,5.32-8,15-9.11,22.26l0,.14-2.19,13.66,9.46-.35,1.52-9.53c2.58-17,15.69-28.81,32.7-29.44l22.4-.82c18-.67,31.92,12.1,32.57,29.67a40.18,40.18,0,0,1-.3,6.32l-.11.74-7.12,45.67c-2.78,16.34-17,29-56.42,50.23C106.37,284.13,94.2,293.13,89.93,296.91Z"/><path class="cls-1" d="M1.47,430.65,20,311.87c4-26.07,13.78-46.32,29-60.15l.21-.19a174.83,174.83,0,0,1,21.38-15.74l-37.1,1.37,13.92-86.94c3.81-24.6,13.32-44.09,28.26-57.89l.63-.56c15.52-13.66,38.44-21,70.07-22.3h.17l46.16-1.7c22.06-.69,53.48.87,72.12,22.2l.13.14c9.83,11.4,15.12,26,15.75,43.28a116.26,116.26,0,0,1-1.41,21.78l0,.14-10.3,65.31c-4,26-13.77,46.24-29,60.08l-.23.2A176.17,176.17,0,0,1,218,296.84l39.3-1.45L237.39,422ZM151.84,212.78l-37.16,20.33c-25.8,14.11-42.86,25-52.16,33.31l-.14.12c-11.7,10.65-19.33,26.94-22.65,48.4L25,409.77l195.23-7.2,13.6-86.3-97.17,3.58,37.21-20.33c26-14.21,43.19-25.17,52.54-33.52l.15-.14c11.69-10.64,19.32-26.92,22.63-48.34l10.31-65.39a96.53,96.53,0,0,0,1.2-18c-.47-12.67-4.13-23.08-10.89-30.91l-.08-.09c-13-14.94-38.42-15.93-56.37-15.36l-46.19,1.7c-26.82,1.14-45.68,6.8-57.63,17.3l-.36.32c-11.52,10.65-18.93,26.21-22,46.26L57,216.28ZM61.38,377.4l9-57.71c2.2-14.18,6.5-24.32,12.78-30.12l.15-.14c5.56-4.92,19.11-14.52,52.09-32.29,40.4-21.75,49.43-32.27,51.29-43L193.85,168a27.26,27.26,0,0,0,.22-4.63,20.57,20.57,0,0,0-6.54-14.66,21.78,21.78,0,0,0-15.66-5.39l-22.4.83c-12.22.45-21.32,8.67-23.18,20.94l-2.83,17.72-29.84,1.11,4.12-25.76c2-12.72,6-22.12,12.05-27.94l.67-.59c4.52-3.64,14.78-8.2,38-9.2l45.89-1.69c15.55-.48,23.82,1.18,28,2.64l4.8,1.68,1.47,4.86a28.76,28.76,0,0,1,1.1,7.35,65.88,65.88,0,0,1-.86,12.16l-10.3,65.32c-2.19,14.16-6.49,24.3-12.77,30.11l-.16.15c-5.57,4.93-19.13,14.53-52.08,32.28-41,22.08-49.17,30.84-51,41l-5.35,36.07,100.11-3.69-3.77,23.89ZM205.52,138.79a39.71,39.71,0,0,1,3.57,5.43c.27-1.83.46-3.56.56-5.1C208.47,139,207.1,138.88,205.52,138.79Z"/><path class="cls-1" d="M242.27,378.5l3.2-53.11,115.64-4.26-3.2,53.11Zm29.78-248.89q2.58-15,11.48-22.45,9-7.23,31.79-8.2l34.27-1.26q22.76-.72,29.16,6,4.37,4.6,4.67,12.8a44.11,44.11,0,0,1-.72,9.08l-20,113.5q-2.6,15-11.61,22.45-8.91,7.25-31.66,8.2l-34.27,1.26q-22.77.74-29.3-5.94-4.23-4.61-4.53-12.7a45.48,45.48,0,0,1,.71-9.19Zm23.33,103.57a6.76,6.76,0,0,0-.08,1.31c.08,2.14,1.42,3.16,4,3.06l17.4-.64c3.23-.12,5.09-1.69,5.59-4.73l17-96.72a7.66,7.66,0,0,0,.09-1.31c-.08-2.14-1.48-3.16-4.18-3.06l-17.39.64c-3.15.12-5,1.69-5.46,4.73Z"/><path class="cls-1" d="M231.62,388.9,236,315.74l135.73-5-4.41,73.16Zm23.28-53.85-2,33.05,95.56-3.52,2-33.05Zm26-54c-15.92,0-26.2-2.9-32.19-9l-.22-.23c-4.46-4.85-6.87-11.27-7.16-19.09a54.77,54.77,0,0,1,.85-11.25l20-113.54c2.13-12.32,7.14-21.86,14.9-28.38l.18-.15c7.8-6.24,20.1-9.64,37.62-10.38l34.32-1.27c18.6-.59,30.27,2.28,36.74,9,4.67,4.93,7.16,11.43,7.45,19.37a54.76,54.76,0,0,1-.85,11.12L372.51,240.77c-2.14,12.32-7.21,21.89-15.09,28.42-7.79,6.33-20.07,9.74-37.61,10.48l-34.32,1.27C283.9,281,282.36,281,280.87,281ZM263,258.07c.62.52,4.83,3.43,21.76,2.88L319,259.69c16.86-.71,23.35-4,25.72-6,4.08-3.39,6.74-8.77,8.06-16.4l20.06-113.54a34.69,34.69,0,0,0,.56-7c-.11-2.94-.76-5.06-1.93-6.3h0s-3.54-3.4-21.59-2.83L315.69,109c-16.7.71-23.33,4-25.82,5.94-4,3.41-6.67,8.93-8,16.42l-20,113.54a34.61,34.61,0,0,0-.56,7.09C261.39,254.74,262,256.8,263,258.07Zm36-10.51a14,14,0,0,1-8.67-2.73,12.81,12.81,0,0,1-5-10,17.47,17.47,0,0,1,.17-3.11l0-.3,17-96.68c1.3-7.75,7-12.74,15-13l17.39-.64.74,0c9.15,0,13.57,6.51,13.8,12.7a18.21,18.21,0,0,1-.18,3.1l-.05.31-17,96.68c-1.3,7.75-7.07,12.74-15.07,13l-17.4.64Zm22.63-106-15.06,85.68,6.51-.24,15.05-85.68Z"/><path class="cls-1" d="M215.12,405l6.29-104.25,166.85-6.16L382,398.87Zm54.41-55-.12,2,64.44-2.37.12-2Zm10.81-53.5c-14.68,0-31.47-2.17-42.74-13.68l-.55-.59c-4.84-5.25-10.71-14.55-11.24-29a70.2,70.2,0,0,1,1.06-14.45l0-.12,20-113.5c2.79-16,9.58-28.62,20.19-37.54l.47-.38c10.61-8.5,25.44-12.88,46.65-13.78h.14l34.4-1.27c15.88-.5,35.72.61,48.36,13.77l.14.14c5,5.29,11.08,14.68,11.62,29.4a69.43,69.43,0,0,1-1.06,14.3l0,.14-20.05,113.5c-2.77,16-9.66,28.72-20.46,37.66l-.18.15c-10.55,8.58-25.38,13-46.67,13.89h-.13l-34.4,1.27C284.11,296.49,282.24,296.52,280.34,296.52Z"/><path class="cls-1" d="M204.48,415.42,212,291.11,231,290.4c-.19-.18-.37-.37-.56-.56l-.78-.82c-6-6.5-13.22-17.91-13.86-35.41a81,81,0,0,1,1.19-16.5l0-.18,20.05-113.49c3.19-18.35,11.13-33,23.6-43.46l.65-.53c12.35-9.9,29-15,52.48-16h.2l34.4-1.26c18-.58,40.55.83,55.93,16.83l.14.15c6.24,6.58,13.75,18.12,14.4,36a79.47,79.47,0,0,1-1.19,16.35l0,.15L397.62,245.2c-2.82,16.28-9.43,29.64-19.69,39.78l21-.77-7.49,124.31Zm26.36-105-5.07,84.2,146.77-5.41,5.07-84.2Zm13.95-34.53c7.14,7.25,18.44,10.63,35.55,10.63,1.64,0,3.37,0,5.27-.09l34.48-1.27c19-.79,31.94-4.5,40.73-11.65l.18-.14c8.85-7.33,14.56-18,16.92-31.61L398,128.13a58.63,58.63,0,0,0,.92-12.24C398.48,104.28,393.83,97,390,93l-.09-.09c-9.91-10.31-27-11.13-40.82-10.7l-34.5,1.28C295.71,84.27,282.75,88,273.88,95l-.37.3c-8.73,7.36-14.36,18-16.72,31.56L236.72,240.55a59.92,59.92,0,0,0-.92,12.33c.42,11.35,4.87,18.52,8.56,22.55Zm14,86.49,1.32-22,84.52-3.12-1.33,22Z"/><path class="cls-1" d="M554.91,89.92l63.43-2.34L582.22,318.93,654,316.28l-8.69,55.1-135.16,5Z"/><path class="cls-1" d="M498.35,386.8l48-306.57,83.78-3.09L594,308.49l71.76-2.65-11.86,75.23ZM563.52,99.61,521.86,365.92l114.82-4.23,5.51-35-71.73,2.65L606.58,98Z"/><path class="cls-1" d="M480.13,403,533,65.21,648.3,61,612.18,292.3,684,289.66,667.19,396.09Zm96.73-288.36L540.08,349.74l83.28-3.07.59-3.77-71.7,2.65L588.37,114.2Z"/><path class="cls-1" d="M468.38,413.43l56-357.91,135.69-5L623.93,281.86l71.81-2.64-20,126.55ZM541.57,74.9,491.89,392.55,658.6,386.4l13.6-86.3-71.77,2.64L636.55,71.4ZM528.33,360.18l39.92-255.24,31.87-1.18L564,335.11l71.72-2.65L632,356.36Z"/><path class="cls-1" d="M813.75,80.37,877.17,78,839.9,315.77q-3.84,25-17.48,37.36-13.44,12-47.92,13.48l-51.93,1.92q-34.5,1.07-44.43-10.07-6.43-7.71-6.93-21.18a82.35,82.35,0,0,1,1-15.32L709.5,84.22l63.42-2.34-35,223.76a13,13,0,0,0-.11,2.19q.19,5.35,6.14,5.13l26.36-1q7.34-.27,8.44-7.85Z"/><path class="cls-1" d="M716.59,378.62c-23.08,0-37.74-4.34-45.91-13.51l-.21-.24c-5.73-6.85-8.84-16-9.26-27.22a92.93,92.93,0,0,1,1.13-17.2L700.9,74.53l83.78-3.09-36.2,231.35L769,302l36.2-231.35,83.78-3.09L849.78,317.32c-2.9,18.85-9.84,33.39-20.63,43.21s-28.63,15-54.23,16.07l-52,1.92Q719.67,378.63,716.59,378.62ZM685.7,351.91c2.2,2.35,10,7.45,36.56,6.62l51.87-1.91c25.48-1.09,36.71-6.55,41.63-10.95,7.24-6.59,12.06-17.18,14.25-31.42l35.4-225.78-43,1.59L788.62,305.68c-1.41,9.66-8.3,15.95-18,16.3l-26.36,1c-9.53.35-16.17-5.58-16.51-14.76a23.35,23.35,0,0,1,.2-3.86l0-.24L761.17,92.32l-43.06,1.59-36,229.6a71.85,71.85,0,0,0-.91,13.4C681.44,343.5,683,348.54,685.7,351.91Z"/><path class="cls-1" d="M716.76,394.12c-27.92,0-46.33-6-57.65-18.69l-.53-.62c-8-9.55-12.31-21.86-12.86-36.59a107.75,107.75,0,0,1,1.3-20.11l40.55-258.6,219.59-8.1L865.09,319.72c-3.45,22.4-12,40-25.5,52.27l-.18.16c-13.63,12.17-34.51,18.69-63.83,19.94h-.14L723.37,394Q720,394.12,716.76,394.12ZM697.3,341c2.61.9,9.55,2.54,24.4,2.08l51.77-1.91c24-1,30.93-6.14,31.9-7,4.56-4.23,7.7-11.72,9.32-22.28l32.5-207.23-11.49.42L804,308c-2.56,17-15.69,28.85-32.71,29.48l-26.36,1-1.32,0c-17.28,0-30.61-12.56-31.25-29.7a39.2,39.2,0,0,1,.32-6.44l.09-.63L743,108.5l-11.51.42-34,216.93a57.36,57.36,0,0,0-.74,10.49A20.19,20.19,0,0,0,697.3,341Z"/><path class="cls-1" d="M716.76,404.12c-31,0-51.71-7-65.12-22l-.74-.85c-9.44-11.3-14.54-25.65-15.17-42.65a117.56,117.56,0,0,1,1.41-22L679,49.82l240-8.85L875,321.27c-3.81,24.71-13.45,44.28-28.65,58.12l-.21.19c-15.46,13.8-38.38,21.15-70.1,22.5h-.17L723.73,404C721.31,404.08,719,404.12,716.76,404.12Zm-50.14-35.3c9.34,10.44,25.28,15.3,50.14,15.3,2,0,4.13,0,6.29-.1l52.13-1.92c26.9-1.15,45.74-6.84,57.57-17.41l.14-.12c11.7-10.66,19.22-26.27,22.32-46.37L895.4,61.85,696.17,69.2,656.9,319.66a97.28,97.28,0,0,0-1.18,18.19c.45,12.43,4,22.68,10.48,30.49Zm50.11-15.7c-12.07,0-18.92-1.42-22.66-2.69l-5-1.71-1.41-5.09a30.39,30.39,0,0,1-1-6.92,66.89,66.89,0,0,1,.84-12.36l35.3-225.12,31.86-1.17L722.54,303.69a28.08,28.08,0,0,0-.23,4.71c.43,11.63,9.36,20.07,21.25,20.07l.94,0,26.37-1c12.24-.45,21.34-8.69,23.19-21l33-211.11L859,94.22,824.57,313.44c-2,13-6.05,22.18-12.4,28.06l-.32.29c-3.57,3-13.25,8.27-38,9.33L722.07,353Q719.25,353.12,716.73,353.12Zm-10-20.47c1.2.13,2.58.24,4.17.33a40.2,40.2,0,0,1-3.61-5.48C707,329.35,706.83,331.08,706.73,332.65Z"/><path class="cls-1" d="M1067.11,202l-16.73,106q-3.84,24.94-17.48,37.36-13.44,12-47.92,13.48l-51.93,1.91q-34.5,1.08-44.43-10.07-6.43-7.69-6.93-21.18a80.72,80.72,0,0,1,1-15.32l29.74-189q3.84-25,17.28-37.36,13.65-12,48.12-13.48l49.95-1.84q34.48-1.08,44.23,10.07,6.63,7.7,7.14,21.37a81.91,81.91,0,0,1-1,15.12l-7.87,50.31-61.44,2.26,5.61-36.32a13,13,0,0,0,.11-2.19q-.19-5.35-6.34-5.13l-26.36,1q-7.12.26-8.24,7.84L948.39,297.88a14.28,14.28,0,0,0-.12,2.19c.14,3.56,2.18,5.27,6.15,5.13l28.34-1.05q7.34-.27,8.44-7.85L997,259.37l-21.2.78,8.68-55.09Z"/><path class="cls-1" d="M927.07,370.86c-23.08,0-37.74-4.34-45.92-13.51l-.2-.24c-5.73-6.85-8.84-16-9.26-27.23a93,93,0,0,1,1.13-17.2L902.57,123.6c2.9-18.82,9.76-33.34,20.38-43.15l.17-.15c11-9.66,28.73-14.88,54.31-16l50-1.85c26.82-.83,43.36,3.46,52.13,13.49,6,6.93,9.18,16.19,9.6,27.58a90.81,90.81,0,0,1-1.14,17L1078.87,179l-81.77,3,6.78-43.91-20.48.75L959,295l22.45-.82,3.82-24.39L964,270.6l11.86-75.23,103-3.8-18.62,118c-2.9,18.83-9.85,33.38-20.62,43.19-10.92,9.75-28.64,15-54.24,16.08l-52,1.92C931.23,370.82,929.12,370.86,927.07,370.86Zm-30.89-26.72c2.19,2.36,10,7.46,36.56,6.63l51.87-1.92c25.48-1.08,36.71-6.55,41.63-10.94,7.24-6.59,12.06-17.19,14.25-31.42l14.85-94-62.28,2.3-5.51,35,21.19-.78-7.65,48.87c-1.45,9.73-8.33,16-18,16.35l-28.34,1a16.05,16.05,0,0,1-11.29-3.49,14.85,14.85,0,0,1-5.22-11.27,23.18,23.18,0,0,1,.2-3.85l0-.25,25.21-161c1.45-9.73,8.25-16,17.77-16.34l26.35-1a16.46,16.46,0,0,1,11.31,3.38,15,15,0,0,1,5.4,11.37,24.11,24.11,0,0,1-.19,3.81l0,.27-3.76,24.36,41.1-1.51,6.6-42.16a70.71,70.71,0,0,0,.91-13.21c-.24-6.75-1.83-11.86-4.71-15.21-2-2.23-9.48-7.44-36.35-6.61l-49.89,1.84c-25.38,1.08-36.74,6.52-41.8,10.92-7.16,6.66-11.9,17.24-14.09,31.45L892.59,315.75a71.75,71.75,0,0,0-.91,13.39C891.92,335.73,893.44,340.78,896.18,344.14Z"/><path class="cls-1" d="M927.24,386.36c-27.92,0-46.33-6-57.65-18.7l-.53-.61c-8-9.55-12.32-21.87-12.86-36.6a107.8,107.8,0,0,1,1.3-20.11l0-.11,29.74-189c3.44-22.32,11.91-39.88,25.17-52.13l.45-.4c13.73-12.09,34.63-18.57,63.89-19.82h.14L1027,47c20-.62,48.37.65,64.22,18.78l.12.14c8.27,9.6,12.75,22.07,13.3,37.07a107.26,107.26,0,0,1-1.3,19.91l-8.23,52.57,2-.07L1075.57,312c-3.45,22.37-12,40-25.5,52.24l-.18.16c-13.63,12.17-34.51,18.69-63.83,19.93h-.15l-52.06,1.92Q930.46,386.36,927.24,386.36ZM907.78,333.2c2.61.89,9.54,2.53,24.4,2.08L984,333.37c24-1,30.93-6.14,31.91-7,4.55-4.23,7.69-11.72,9.32-22.27l11.91-75.5-30.71,1.14-.59,3.76,21.17-.78-10.55,67.41c-2.57,17-15.69,28.85-32.72,29.48l-28.33,1a31.45,31.45,0,0,1-21.8-7.08A30.42,30.42,0,0,1,922.79,301a39.08,39.08,0,0,1,.32-6.43l.09-.63,25.2-161c2.56-17,15.61-28.87,32.52-29.49l26.35-1a31.77,31.77,0,0,1,21.63,6.82A30.29,30.29,0,0,1,1040,132.16a40.29,40.29,0,0,1-.3,6.32l-.1.69-.9,5.82,9.58-.35,4.62-29.54a56,56,0,0,0,.75-10.24,18.75,18.75,0,0,0-.68-4.81c-2.45-.86-9.31-2.56-24.36-2.09L978.89,99.8c-23.16,1-30.53,5.7-32.13,7-5.5,5.31-8,15-9.11,22.25L907.91,318.1a57.21,57.21,0,0,0-.74,10.47A20.21,20.21,0,0,0,907.78,333.2ZM1052.65,99.12Z"/><path class="cls-1" d="M927.24,396.36c-31,0-51.71-7-65.12-22l-.74-.86c-9.44-11.29-14.55-25.64-15.17-42.64a118.31,118.31,0,0,1,1.4-22l0-.14,29.74-189.06c3.79-24.61,13.31-44.11,28.27-57.92l.62-.56c15.52-13.66,38.44-21,70.07-22.31l50.3-1.85c22.06-.68,53.49.87,72.12,22.19l.14.16c9.82,11.39,15.1,25.94,15.74,43.27a116.16,116.16,0,0,1-1.41,21.78L1106.88,165l2-.07-23.46,148.59c-3.8,24.69-13.44,44.24-28.64,58.08l-.23.21c-15.44,13.79-38.36,21.13-70.09,22.48h-.16l-52.11,1.92C931.79,396.32,929.46,396.36,927.24,396.36Zm-50.14-35.3c9.35,10.44,25.28,15.3,50.14,15.3,2,0,4.13,0,6.29-.11l52.13-1.92c26.9-1.14,45.74-6.84,57.57-17.4l.15-.14c11.69-10.64,19.21-26.24,22.3-46.33l19.67-124.64-2,.08,10.1-64.56a96.8,96.8,0,0,0,1.19-18c-.47-12.67-4.13-23.08-10.89-30.91l-.09-.11c-13-14.91-38.41-15.91-56.36-15.35l-50.16,1.85c-26.82,1.15-45.68,6.81-57.63,17.3l-.35.32c-11.54,10.66-18.95,26.23-22,46.27L867.38,311.88a97.49,97.49,0,0,0-1.18,18.2c.45,12.44,4,22.69,10.48,30.5Zm50.16-15.71c-12.11,0-19-1.41-22.71-2.69l-5-1.7-1.41-5.1a30.75,30.75,0,0,1-1-6.92A66.76,66.76,0,0,1,898,316.6l29.75-189.12c2-12.67,6-22.07,12.05-27.89l.66-.59c4.52-3.64,14.78-8.2,38-9.19L1028.28,88c15.53-.49,23.81,1.17,28,2.64l4.8,1.68,1.47,4.86a29.2,29.2,0,0,1,1.1,7.34,65.87,65.87,0,0,1-.85,12.12l-5.9,37.72-29.92,1.1,2.81-18.27a27.37,27.37,0,0,0,.22-4.64,20.43,20.43,0,0,0-7.43-15.44,21.9,21.9,0,0,0-15-4.6l-26.35,1c-12.13.44-21.15,8.68-23,21l-25.2,161-.07.5a28.13,28.13,0,0,0-.23,4.71A20.49,20.49,0,0,0,940,315.92a21.48,21.48,0,0,0,15,4.77l28.34-1.05c12.23-.45,21.34-8.68,23.19-21l8.69-55.48L994,244l3.77-23.89,51.07-1.89-13.81,87.5c-2,13-6,22.16-12.39,28l-.33.3c-3.57,3-13.25,8.27-38,9.33l-51.83,1.91C930.69,345.33,928.92,345.35,927.26,345.35Zm-10-20.47c1.17.13,2.52.24,4.07.33a39.38,39.38,0,0,1-3.52-5.37C917.49,321.64,917.3,323.34,917.21,324.88Zm124.48-216.71c.62.8,1.2,1.62,1.75,2.47.09-.8.15-1.56.2-2.29C1043,108.29,1042.39,108.22,1041.69,108.17Z"/><path class="cls-1" d="M1165.15,67.41,1266,63.69l6.73,284.54-63.42,2.34-.8-53.75L1150.07,299l-17.84,54.45-63.42,2.33Zm43,46.84-39.88,129.48,39-1.44Z"/><path class="cls-1" d="M1054.75,366.28,1157.86,57.67l57.91-2.13,2.82-9.17-.06,9.06,57.25-2.11,7.2,304.54-83.5,3.08-.79-53.75-41.29,1.52-17.83,54.44ZM1172.44,77.15l-89.57,268.08,42-1.55,17.84-54.44,75.64-2.79.8,53.75,43.34-1.6-6.25-264.54-37.87,1.39-1.14,176.48-62.69,2.31,55-178.46Zm25.27,105L1182,233.21l15.4-.57Z"/><path class="cls-1" d="M1234.14,39.35l56.77-2.1,7.93,335.54L1184.22,377l-.8-53.76-14.65.54-17.84,54.44-118,4.35,113.6-340,57.64-2.13m-20.47,51.79-79.07,236.67,8.87-.32,17.84-54.44,102.28-3.78.79,53.76,12.22-.45-5.52-233.56-7.33.27-1.15,176.48-99.32,3.66,55-178.46Z"/><path class="cls-1" d="M1244.21,29l56.45-2.08,8.41,355.53-134.7,5-.69-46.47L1158.26,388l-139.36,5.14L1139.27,32.84l57.46-2.12m14.93,19.46-57.81,2.14L1047,372.07l96.58-3.56,17.84-54.44,31.83-1.18.79,53.76,94.55-3.49-7.46-315.54-57.08,2.11M1090.6,339.44,1176.44,82.5l25.56-.94L1147,260l75.68-2.79,1.15-176.48,27-1,6,253.55-32.3,1.19-.79-53.76-85.1,3.14-17.83,54.44Z"/><path class="cls-1" d="M1377.31,245.34,1361.74,345l-63.42,2.34,44.8-286.44,107.82-4q34.49-1.08,44.23,10.08,6.63,7.69,7.14,21.36a82,82,0,0,1-1,15.13l-10.94,69.27q-3.85,24.94-27.39,37.72c-3.9,1.73-6,3.27-6.38,4.6v.2q.06,1.59,5.1,3.78,17.6,9.08,18.27,27.31a49.84,49.84,0,0,1-.47,8.75l-13.5,86-63.42,2.34,14.47-92a14.22,14.22,0,0,0,.12-2.19c-.13-3.56-2.25-5.27-6.34-5.12Zm20.55-131.74L1386,190.05l33.49-1.24q7.33-.27,8.45-7.85l9.64-61.28a12.13,12.13,0,0,0,.12-2.19q-.2-5.35-6.34-5.12Z"/><path class="cls-1" d="M1286.56,357.73l48-306.57,116.06-4.28c26.81-.83,43.36,3.45,52.13,13.49,6,6.92,9.18,16.18,9.6,27.58a90.76,90.76,0,0,1-1.14,17l-11,69.33c-2.66,17.3-11.37,31-25.91,40.95A39.38,39.38,0,0,1,1490,246a61.75,61.75,0,0,1-.56,10.46l0,.21-14.77,94.17-83.79,3.09,15.66-99.61-20.54.76-15.58,99.61Zm65.17-287.2-41.66,266.32,43.06-1.59,15.58-99.61,41.73-1.54c9.62-.35,16.36,5.58,16.7,14.75a23,23,0,0,1-.19,3.82l0,.29-12.58,80,43.05-1.58,12.21-77.79a42.06,42.06,0,0,0,.37-6.94c-.31-8.48-4.2-14.24-12.59-18.65-3.17-1.39-10.5-4.84-10.78-12.44l-.07-1.66.38-1.43c1.49-5.73,6.65-8.81,11.61-11,12.7-7,19.88-16.91,21.94-30.29l11-69.3a71.41,71.41,0,0,0,.91-13.2c-.25-6.74-1.83-11.86-4.72-15.2-1.95-2.24-9.49-7.44-36.34-6.62Zm22.52,130,15-96.58,41.74-1.54a16.51,16.51,0,0,1,11.31,3.39,15,15,0,0,1,5.4,11.36,23,23,0,0,1-.2,3.82l0,.29-9.64,61.24c-1.45,9.72-8.32,16-18,16.34Zm32.22-77.2-8.74,56.32,20.41-.75,8.86-56.33Z"/><path class="cls-1" d="M1268.34,373.91l52.84-337.77,129-4.76c20-.62,48.38.65,64.23,18.79l.11.13c8.28,9.6,12.76,22.07,13.31,37.08a108.13,108.13,0,0,1-1.3,19.9l0,.14-10.94,69.26a73.87,73.87,0,0,1-19.06,39.86,55.5,55.5,0,0,1,9,28.84,77.41,77.41,0,0,1-.69,13.11l-.08.53-16.75,106.79Zm96.73-288.36-36.78,235.12,11.5-.43,15.58-99.6,54.5-2a31.67,31.67,0,0,1,24.61,9.67,26.31,26.31,0,0,1-3.38-12.13l-.15-3.83a35.81,35.81,0,0,1-10.52,2l-64.38,2.37,19.84-127.78,54.52-2A31.81,31.81,0,0,1,1452,93.7a30.29,30.29,0,0,1,11.13,22.85,38.1,38.1,0,0,1-.3,6.34l-.11.75-9.63,61.19c-.1.69-.22,1.38-.36,2,7.39-4.51,11.13-10,12.36-18l10.95-69.31a55.86,55.86,0,0,0,.74-10.26,19.55,19.55,0,0,0-.67-4.82c-2.45-.85-9.3-2.55-24.35-2.09Zm73.41,148.12a31.09,31.09,0,0,1,4.15,14.62,38.22,38.22,0,0,1-.3,6.35l-.11.74-9.66,61.44,11.49-.42,10.19-65a24.74,24.74,0,0,0,.23-4.16c-.07-1.93-.12-3.23-4-5.31A38.62,38.62,0,0,1,1438.48,233.67Z"/><path class="cls-1" d="M1256.59,384.35l56-357.9,137.21-5.06c22.06-.69,53.48.87,72.12,22.2l.12.14c9.83,11.4,15.12,26,15.76,43.28a116.1,116.1,0,0,1-1.41,21.77l0,.18-10.95,69.28a84,84,0,0,1-16.76,39.44,66,66,0,0,1,6.79,27.33,86.23,86.23,0,0,1-.77,14.83l-.09.64-18,115Zm73.19-338.52L1280.1,363.47l199.22-7.35,15.53-99a65.92,65.92,0,0,0,.59-11.35,45.34,45.34,0,0,0-7.33-23.7l-4.33-6.57,5.37-5.76a63.88,63.88,0,0,0,16.49-34.56l11-69.42a97.88,97.88,0,0,0,1.19-18c-.47-12.68-4.13-23.08-10.89-30.92l-.08-.09c-13-14.94-38.42-15.93-56.37-15.36Zm-13.25,285.28,39.93-255.25,95-3.5c15.55-.48,23.82,1.17,28,2.65l4.8,1.67,1.47,4.86a29.67,29.67,0,0,1,1.1,7.35A67.27,67.27,0,0,1,1486,101l-11,69.37c-1.69,11-7.11,19-17,25L1440.7,206l.39,9.81a16.28,16.28,0,0,0,2.09,7.59l1,1.81,1.53,1.61a28.79,28.79,0,0,0,9,6.08l.59.29c6.21,3.37,9,7.48,9.19,13.74a34.54,34.54,0,0,1-.3,5.8l0,.28-.9,5.74,21.2,37.37-23.19-24.69-8.58,54.7-31.85,1.17,11.62-73.95a29.74,29.74,0,0,0,.22-4.65,21.21,21.21,0,0,0-2.8-10l-1.12-1.93-1.53-1.63a21.57,21.57,0,0,0-16.94-6.52l-46.28,1.7-15.57,99.61Zm68-232.53-16.71,107.65,42.23-1.56-23.32-40L1424,203.87a23.57,23.57,0,0,0,3.67-1l12.49-4.36,2.83-13.69c.11-.5.2-1,.28-1.51l9.71-61.78a28.45,28.45,0,0,0,.22-4.64,20.41,20.41,0,0,0-7.43-15.44,21.88,21.88,0,0,0-15-4.6Zm80.33-6c.61.8,1.2,1.62,1.75,2.47.09-.8.15-1.56.19-2.29Z"/><text class="cls-2" transform="translate(12.73 400.45) rotate(-2.11)">2ยบ lugar</text></g></g></svg>