<svg xmlns="http://www.w3.org/2000/svg" viewBox="0 0 1529.17 491.73"><defs><style>.cls-1{fill:#036;}.cls-2{font-size:406.17px;fill:#fff;font-family:UPBOLTERS-Italic, UPBOLTERS;font-style:italic;}</style></defs><title>Asset 7</title><g id="Layer_2" data-name="Layer 2"><g id="Objects"><path class="cls-1" d="M93.59,393.45q-34.5,1.08-44.43-10.07-6.44-7.69-6.93-21.17a80.61,80.61,0,0,1,1-15.32L50,304.56l63.42-2.34-4.51,28.35a14.28,14.28,0,0,0-.12,2.19c.13,3.57,2.25,5.27,6.34,5.12l22.2-.82q7.34-.26,8.44-7.85l7.07-45.31a19.3,19.3,0,0,0,.11-2.38c-.13-3.44-2.18-5.08-6.14-4.94l-24.57.91,8.47-55.29,24.58-.9c4.89-.19,7.77-2.8,8.64-7.86L171,168.12a14.09,14.09,0,0,0,.12-2.18c-.13-3.57-2.25-5.28-6.34-5.13l-20.22.75q-7.33.27-8.44,7.85l-4.84,30.35L69.85,202,77,157.7q3.85-24.94,17.28-37.35,13.65-12,48.13-13.49l42-1.55q34.5-1.07,44.23,10.08,6.65,7.69,7.14,21.37a81,81,0,0,1-1,15.12l-8.35,53.3q-4.05,25-27.39,37.73c-4,1.73-6.23,3.27-6.57,4.6q.06,1.78,5.11,4Q215.3,260.57,216,278.6a42.29,42.29,0,0,1-.66,8.95L207,340.85q-3.84,24.94-17.47,37.36-13.46,12-47.93,13.48Z"/><path class="cls-1" d="M87.26,425.06c-20.33,0-45.89-3.07-61.61-20.71l-.66-.76C16.13,393,11.34,379.46,10.75,363.37a112.88,112.88,0,0,1,1.36-21.24l0-.22L23,274l68.29-2.52,6-39-64.59,2.38L45.84,152.8c3.67-23.73,12.76-42.43,27-55.6l.56-.5c14.8-13,36.91-20,67.59-21.31h.18l42.2-1.56c21.21-.66,51.42.78,68.94,20.84l.13.16c9.19,10.66,14.16,24.37,14.76,40.77a112.43,112.43,0,0,1-1.37,21l0,.13-8.38,53.46a81.17,81.17,0,0,1-17.56,39.38,61.42,61.42,0,0,1,7.56,27.83,74.19,74.19,0,0,1-1.07,15.29l-8.31,53c-3.66,23.77-12.88,42.56-27.39,55.77l-.22.2c-14.7,13.13-36.8,20.15-67.57,21.46h-.18l-48.14,1.78C92.23,425,89.78,425.06,87.26,425.06Zm-13.56-64a90.73,90.73,0,0,0,18,.93l-1-.78a36.12,36.12,0,0,1-13.31-26.14H77l-2.67,16.65a51.52,51.52,0,0,0-.67,9.3Zm100.12-16.19A39.51,39.51,0,0,1,167,355.55a9.75,9.75,0,0,0,1.48-.83C170.61,352.68,172.43,349.3,173.82,344.88Zm10.62-64.62v.1c0,.15,0,.31,0,.46a4.84,4.84,0,0,0,0-.53Zm3.85-143.53c.33.25.65.5,1,.75a35.66,35.66,0,0,1,12.59,20.78l1.75-11.2a48.9,48.9,0,0,0,.68-9.14v-.21A84.89,84.89,0,0,0,188.29,136.73Z"/><path class="cls-1" d="M237.59,380.4l3.2-53.1L356.43,323l-3.2,53.11Zm29.78-248.89q2.58-15,11.48-22.45,9-7.23,31.79-8.2l34.27-1.26q22.75-.72,29.16,6,4.37,4.61,4.66,12.8a44.05,44.05,0,0,1-.71,9.08l-20,113.5q-2.6,15-11.62,22.46-8.89,7.23-31.65,8.19l-34.27,1.26q-22.77.74-29.3-5.94-4.23-4.61-4.53-12.69a44.81,44.81,0,0,1,.71-9.2ZM290.7,235.08a6.76,6.76,0,0,0-.08,1.31c.08,2.14,1.42,3.16,4,3.07l17.4-.65c3.22-.11,5.09-1.69,5.59-4.73l17-96.71a6.86,6.86,0,0,0,.08-1.32c-.07-2.14-1.47-3.16-4.17-3.06l-17.4.64c-3.14.12-4.95,1.7-5.45,4.73Z"/><path class="cls-1" d="M204.05,413.16l7-116.29,26.47-1a43,43,0,0,1-8.89-6.95l-.69-.72c-5.51-6-12.21-16.57-12.82-32.85a76.55,76.55,0,0,1,1.15-15.69l0-.14,20-113.46c3-17.44,10.51-31.28,22.24-41.13l.57-.47c11.66-9.34,27.6-14.14,50.16-15.09h.17l34.43-1.27c15.79-.49,38.43.58,52.88,15.61l.16.18c5.72,6,12.65,16.71,13.26,33.3a75.6,75.6,0,0,1-1.13,15.52l0,.19L389,246.36c-3.05,17.52-10.63,31.41-22.55,41.28l-.22.19a55.11,55.11,0,0,1-4.83,3.5L390,290.27l-7,116.29Z"/><path class="cls-1" d="M550.23,91.82l63.42-2.34L577.53,320.83l71.75-2.65-8.68,55.1-135.17,5Z"/><polygon class="cls-1" points="468.4 411.15 523.12 61.3 650.67 56.59 614.55 287.94 686.35 285.29 667.67 403.8 468.4 411.15"/><path class="cls-1" d="M809.07,82.27l63.42-2.34L835.22,317.68q-3.84,24.94-17.48,37.35-13.44,12-47.92,13.48l-51.93,1.92q-34.49,1.08-44.43-10.07-6.44-7.71-6.93-21.18a81.5,81.5,0,0,1,1-15.32L704.82,86.12l63.42-2.34-35,223.76a13,13,0,0,0-.11,2.19c.13,3.57,2.17,5.28,6.14,5.13l26.36-1q7.33-.27,8.44-7.85Z"/><path class="cls-1" d="M711.56,402c-20.32,0-45.88-3.07-61.61-20.71l-.66-.76c-8.86-10.59-13.65-24.13-14.24-40.22a113.72,113.72,0,0,1,1.36-21.24l0-.12L677.72,55.6l231.81-8.55-43.19,275.5c-3.66,23.77-12.88,42.57-27.39,55.78l-.23.2c-14.7,13.13-36.8,20.15-67.57,21.45H771l-52.11,1.92C716.54,402,714.09,402,711.56,402ZM698,338A90.93,90.93,0,0,0,716,339a36.21,36.21,0,0,1-14.31-28.07l0-.94-2.93,18.71A51.13,51.13,0,0,0,698,338Zm104.08-16.33a39.54,39.54,0,0,1-6.82,10.66,9.21,9.21,0,0,0,1.47-.82C798.87,329.51,800.69,326.13,802.09,321.71Z"/><path class="cls-1" d="M1062.43,203.91l-16.73,106q-3.84,25-17.48,37.36-13.44,12-47.92,13.48l-51.93,1.91q-34.5,1.08-44.43-10.07-6.44-7.69-6.93-21.17a80.61,80.61,0,0,1,1-15.32l29.74-189q3.84-24.94,17.28-37.36,13.65-12,48.12-13.48l50-1.84q34.48-1.08,44.23,10.08,6.63,7.7,7.14,21.36a82,82,0,0,1-1,15.13l-7.87,50.3-61.44,2.26,5.61-36.32a13,13,0,0,0,.11-2.19q-.2-5.35-6.34-5.13l-26.36,1q-7.12.26-8.24,7.84L943.71,299.78a13,13,0,0,0-.11,2.19c.13,3.57,2.17,5.28,6.14,5.13l28.34-1.05q7.33-.27,8.44-7.85l5.78-36.93-21.2.79,8.68-55.1Z"/><path class="cls-1" d="M922,394.27c-20.32,0-45.89-3.07-61.61-20.72l-.66-.75c-8.86-10.6-13.65-24.13-14.24-40.23a112.93,112.93,0,0,1,1.36-21.23l0-.14,29.73-189c3.67-23.76,12.77-42.49,27-55.67l.56-.5c14.8-13,36.91-20,67.59-21.31H972l50.13-1.85c21.21-.65,51.41.79,68.93,20.84l.14.16c9.19,10.66,14.15,24.38,14.76,40.77a114.15,114.15,0,0,1-1.37,21l0,.12-7.08,45.29,2-.08-22.69,143.77c-3.69,23.81-12.9,42.58-27.39,55.77l-.23.21c-14.7,13.12-36.8,20.14-67.57,21.45h-.17l-52.11,1.92C927,394.22,924.56,394.27,922,394.27Zm-13.56-64a91.87,91.87,0,0,0,17.95.93c-.49-.37-1-.74-1.39-1.11a36.28,36.28,0,0,1-12.92-27l0-.87-2.94,18.68a51.78,51.78,0,0,0-.67,9.32ZM1027,105.8a35.67,35.67,0,0,1,13.57,21.54l1.75-11.2A50.9,50.9,0,0,0,1043,107v-.22A86.16,86.16,0,0,0,1027,105.8Zm-81,7.44c-2,2.09-3.8,5.47-5.15,9.85a39.62,39.62,0,0,1,6.86-10.77A11.4,11.4,0,0,0,946,113.24Z"/><path class="cls-1" d="M1160.46,69.31l100.88-3.72,6.73,284.54-63.42,2.34-.8-53.75-58.46,2.16-17.84,54.44-63.42,2.34Zm43,46.84-39.88,129.48,39.05-1.44Z"/><path class="cls-1" d="M1235.5,35l56.58-2.08,8.21,347.53-126.66,4.67-.8-53.75-4.34.16L1150.65,386l-130.81,4.82L1137.5,38.64,1195,36.51m40.34,263.81.29,19.49h.17ZM1234.12,247l-.12,19.14.57,0Z"/><path class="cls-1" d="M1372.63,247.25l-15.57,99.6-63.42,2.34,44.8-286.44,107.82-4q34.48-1.08,44.23,10.08,6.63,7.7,7.14,21.37a82,82,0,0,1-1,15.12l-10.94,69.27q-3.84,24.94-27.39,37.72c-3.9,1.73-6,3.27-6.38,4.6v.2q.06,1.59,5.1,3.78,17.6,9.09,18.27,27.31a49.84,49.84,0,0,1-.47,8.75l-13.49,86-63.43,2.34,14.47-92a14.22,14.22,0,0,0,.12-2.19c-.13-3.56-2.25-5.27-6.34-5.12Zm20.55-131.75L1381.31,192l33.49-1.23q7.34-.27,8.45-7.86l9.64-61.28a12.13,12.13,0,0,0,.12-2.19c-.13-3.57-2.24-5.27-6.34-5.12Z"/><path class="cls-1" d="M1256.61,382.08l54.72-349.85,134-4.94c21.2-.66,51.41.78,68.93,20.83l.14.16c9.19,10.66,14.15,24.38,14.75,40.78a110.75,110.75,0,0,1-1.36,21l0,.17-10.93,69.21a80.24,80.24,0,0,1-17.56,39.64,62.12,62.12,0,0,1,7.53,28,83.36,83.36,0,0,1-.73,14.15l-.1.64L1488.4,373.53ZM1450.15,90.19a35.7,35.7,0,0,1,13.55,21.49l1.77-11.17a50.71,50.71,0,0,0,.68-9.13v-.21A85.89,85.89,0,0,0,1450.15,90.19Z"/><text class="cls-2" transform="translate(12.73 400.37) rotate(-2.11)">3ยบ lugar</text></g></g></svg>